PathFileType	4	(X/Y/Z)	C:/Users/opensim2020/Desktop/walking_exp_matlab/subject01_walking04_straight_04.trc	
DataRate	CameraRate	NumFrames	NumMarkers	Units	OrigDataRate	OrigDataStartFrame	OrigNumFrames	
100.00	100.00	4	43	mm	100.00	2731	279	
Frame#	Time	LFHD			RFHD			LBHD			RBHD			C7			T10			CLAV			STRN			RBAK			LSHO			LUPA			LELB			LFRM			LWRA			LWRB			LFIN			RSHO			RUPA			RELB			RFRM			RWRA			RWRB			RFIN			LASI			RASI			LPSI			RPSI			LTHI			LKNE			LTIB			LANK			LHEE			LTOE			RTHI			RKNE			RTIB			RANK			RHEE			RTOE			*39			*40			*41			*42			
		X1	Y1	Z1	X2	Y2	Z2	X3	Y3	Z3	X4	Y4	Z4	X5	Y5	Z5	X6	Y6	Z6	X7	Y7	Z7	X8	Y8	Z8	X9	Y9	Z9	X10	Y10	Z10	X11	Y11	Z11	X12	Y12	Z12	X13	Y13	Z13	X14	Y14	Z14	X15	Y15	Z15	X16	Y16	Z16	X17	Y17	Z17	X18	Y18	Z18	X19	Y19	Z19	X20	Y20	Z20	X21	Y21	Z21	X22	Y22	Z22	X23	Y23	Z23	X24	Y24	Z24	X25	Y25	Z25	X26	Y26	Z26	X27	Y27	Z27	X28	Y28	Z28	X29	Y29	Z29	X30	Y30	Z30	X31	Y31	Z31	X32	Y32	Z32	X33	Y33	Z33	X34	Y34	Z34	X35	Y35	Z35	X36	Y36	Z36	X37	Y37	Z37	X38	Y38	Z38	X39	Y39	Z39	X40	Y40	Z40	X41	Y41	Z41	X42	Y42	Z42	X43	Y43	Z43	

35	0.340	1368.16235	1528.28955	1673.04944	1263.12341	1484.18286	1677.43323	1328.47009	1637.62109	1625.06836	1216.02551	1594.52429	1628.60229	1277.98926	1665.68091	1434.52930	1259.61462	1701.11462	1143.35339	1318.38062	1528.51746	1364.67603	1334.52344	1490.13184	1210.74402	1185.82568	1696.14294	1241.39722	1455.40540	1633.69592	1391.75000	1527.28174	1692.36792	1209.64209	1530.26160	1710.27478	1062.30994	1571.33411	1692.60828	955.37830	1578.15967	1626.75134	829.88708	1590.69128	1687.93469	834.75067	1608.54150	1652.10620	756.68488	1156.86108	1546.26208	1396.81909	1039.28540	1567.85925	1199.49011	1030.73621	1558.60156	1072.31287	1028.83533	1477.84058	973.97198	1089.21375	1366.68933	908.94830	1039.83484	1390.72864	888.69031	1063.49524	1324.47681	840.21527	1410.55908	1563.22437	940.97961	1199.44470	1513.37634	931.07349	1317.89917	1733.65356	947.22003	1178.60229	1697.75671	948.06555	1506.58289	1526.63757	634.38873	1506.29260	1493.95508	503.05273	1527.32251	1520.84436	319.46463	1503.13391	1493.55969	93.24107	1441.39954	1514.45703	53.32882	1548.41650	1355.01086	75.07024	1148.98828	1591.99011	599.89899	1181.36523	1615.05920	442.05380	1164.63000	1688.67615	282.81351	1209.04358	1761.47327	89.10267	1240.36279	1829.04883	58.17793	1253.66785	1633.68396	42.97123	1280.45129	1501.95984	1711.20239	-3101.88354	1973.09644	1023.18329	-3140.48657	2012.58081	1021.94263			 
36	0.350	1372.02539	1520.43945	1672.22961	1266.73254	1476.93567	1676.89563	1332.83350	1629.75806	1623.80737	1220.57715	1587.47412	1627.66724	1282.41064	1657.58264	1433.65173	1263.93921	1693.26953	1142.61633	1321.76257	1520.09705	1363.71899	1337.24792	1481.56201	1209.90393	1189.81970	1688.50378	1240.85925	1459.62927	1624.28809	1390.49304	1531.16492	1683.34900	1208.23071	1533.51318	1701.86877	1061.13269	1573.84863	1685.32068	953.80042	1579.70325	1620.85571	827.54395	1592.69324	1681.95142	833.11578	1609.80969	1646.83374	754.48260	1160.29749	1538.83899	1396.25928	1042.71350	1560.10522	1199.18542	1033.74414	1550.74585	1072.02466	1031.69543	1469.39270	974.23950	1091.69324	1357.33582	910.25769	1042.76367	1381.40894	889.86340	1066.22205	1314.43652	842.24365	1413.38953	1553.62585	939.95569	1201.64026	1505.78638	930.73724	1322.36169	1725.08923	946.24323	1182.79590	1690.57471	947.66956	1509.43909	1520.17590	631.68713	1507.87671	1485.24854	501.41302	1532.23108	1505.29736	318.29193	1511.12695	1469.56958	92.38779	1450.66943	1490.90283	50.80698	1552.24219	1328.77173	78.91569	1150.11682	1587.18286	599.83478	1182.04382	1611.04919	441.98929	1165.26514	1686.67517	283.62979	1209.42676	1760.99158	90.10554	1240.76477	1828.76099	59.79196	1253.60754	1633.62122	42.83175	1284.09595	1494.85071	1710.37427	-3101.91040	1973.16968	1023.48547	-3140.67310	2012.51587	1022.01758			 
37	0.360	1376.01172	1512.53979	1671.37976	1270.50366	1469.41406	1676.28455	1337.29260	1621.89478	1622.60059	1224.76343	1580.13379	1626.76440	1286.97205	1649.49805	1432.84021	1268.27612	1684.94580	1141.63269	1325.24756	1511.68335	1362.92371	1340.12317	1472.90796	1209.11243	1193.99072	1680.86426	1240.30713	1463.95996	1614.87939	1389.28064	1535.04285	1674.30811	1206.84924	1536.88245	1693.42017	1059.94568	1576.50330	1677.87500	952.30786	1581.37305	1614.72058	825.29974	1595.18787	1675.97327	831.72046	1611.19922	1641.24548	752.35278	1164.38831	1531.34314	1395.72314	1045.99951	1552.63843	1198.96338	1036.86902	1542.95850	1071.75146	1034.62292	1460.82593	974.44458	1094.54480	1348.46313	911.42963	1045.63232	1372.20947	890.80310	1068.71240	1304.97693	843.88611	1416.45007	1543.89636	939.09100	1204.02478	1497.92761	930.36426	1327.02563	1716.37732	945.27972	1187.13806	1683.21887	947.36023	1512.56311	1513.68115	629.20398	1509.53455	1476.63757	499.85193	1536.69006	1490.62793	317.37418	1517.94702	1447.49072	92.18961	1458.30505	1469.25293	49.62759	1555.29211	1304.74158	82.90071	1151.87170	1582.16919	600.02814	1183.53198	1607.28577	441.95322	1166.00220	1684.43359	284.50708	1209.63953	1760.52502	91.44296	1241.08398	1828.45850	61.65302	1253.58899	1633.56860	42.76458	1288.11975	1487.44543	1709.83911	-3102.03613	1973.09607	1023.23730	-3140.64185	2012.63269	1021.97913			 
38	0.370	1380.01294	1504.53162	1670.58252	1274.29956	1461.98169	1675.68628	1341.80115	1613.94336	1621.46838	1229.12830	1572.71643	1625.89807	1291.56335	1641.49292	1431.94702	1272.83276	1676.79761	1140.74280	1328.91614	1503.22400	1362.16589	1342.90247	1464.29419	1208.24292	1198.35278	1673.28760	1239.72729	1468.36682	1605.46118	1388.08618	1539.11108	1665.22815	1205.53625	1540.31628	1684.89453	1058.76221	1579.43262	1670.21887	950.89240	1583.24194	1608.25806	823.21667	1597.10022	1669.05981	829.93433	1612.74231	1635.32532	750.35767	1168.13062	1523.90283	1395.27576	1049.49219	1545.12134	1198.71521	1040.17200	1535.18579	1071.45129	1037.50085	1452.66040	974.68030	1096.97705	1339.68762	912.23969	1048.25305	1363.57446	891.37946	1071.15686	1295.78589	845.11121	1419.44458	1534.17615	938.02454	1206.38513	1490.18994	930.04102	1331.78979	1707.52014	944.32373	1191.59595	1675.68445	947.12305	1515.62134	1506.92883	626.67963	1511.62708	1468.18176	498.53607	1540.68042	1477.00220	316.55997	1523.56519	1427.47461	92.13229	1464.72693	1449.45520	48.45147	1557.55688	1283.21704	86.49035	1153.57605	1576.78333	600.09454	1184.77966	1602.83984	441.84842	1166.90332	1681.76624	285.34354	1209.96594	1759.93848	92.80279	1241.46338	1828.10034	63.80435	1253.55066	1633.49890	42.70489	1291.94873	1480.07947	1709.20996	-3101.83838	1973.14941	1023.41064	-3140.82837	2012.43689	1021.94702			 
